<svg width="32" height="32" viewBox="0 0 506 506" fill="none" xmlns="http://www.w3.org/2000/svg">
<mask id="path-1-inside-1_4_13" fill="white">
<path d="M471.609 27.7652C473.034 28.643 474.036 30.2088 474.036 32.1109V209.376C474.036 213.394 469.608 215.836 466.209 213.693L429.715 190.679C427.297 189.154 424.099 189.912 422.622 192.36L345.86 319.59C338.251 330.565 318.643 353.83 296.256 353.83H274.168L471.609 27.7652Z"/>
</mask>
<path d="M471.609 27.7652C473.034 28.643 474.036 30.2088 474.036 32.1109V209.376C474.036 213.394 469.608 215.836 466.209 213.693L429.715 190.679C427.297 189.154 424.099 189.912 422.622 192.36L345.86 319.59C338.251 330.565 318.643 353.83 296.256 353.83H274.168L471.609 27.7652Z" fill="url(#paint0_linear_4_13)"/>
<path d="M471.609 27.7652L473.956 23.9537L470.116 21.5888L467.78 25.4466L471.609 27.7652ZM466.209 213.693L468.597 209.907L468.597 209.907L466.209 213.693ZM429.715 190.679L427.327 194.466L427.327 194.466L429.715 190.679ZM422.622 192.36L426.455 194.672L426.455 194.672L422.622 192.36ZM345.86 319.59L349.538 322.141L349.619 322.024L349.692 321.903L345.86 319.59ZM274.168 353.83L270.339 351.511L266.225 358.306H274.168V353.83ZM471.609 27.7652L469.261 31.5768C469.364 31.6402 469.439 31.7211 469.485 31.8005C469.525 31.8694 469.56 31.9632 469.56 32.1109H474.036H478.513C478.513 28.5447 476.608 25.5868 473.956 23.9537L471.609 27.7652ZM474.036 32.1109H469.56V209.376H474.036H478.513V32.1109H474.036ZM474.036 209.376H469.56C469.56 209.87 469.015 210.171 468.597 209.907L466.209 213.693L463.821 217.479C470.201 221.502 478.513 216.918 478.513 209.376H474.036ZM466.209 213.693L468.597 209.907L432.103 186.893L429.715 190.679L427.327 194.466L463.822 217.479L466.209 213.693ZM429.715 190.679L432.103 186.893C427.564 184.031 421.561 185.454 418.79 190.048L422.622 192.36L426.455 194.672C426.637 194.371 427.03 194.278 427.327 194.466L429.715 190.679ZM422.622 192.36L418.79 190.048L342.027 317.278L345.86 319.59L349.692 321.903L426.455 194.672L422.622 192.36ZM345.86 319.59L342.181 317.04C338.521 322.318 331.98 330.535 323.739 337.382C315.427 344.288 305.929 349.353 296.256 349.353V353.83V358.306C308.971 358.306 320.469 351.738 329.46 344.268C338.522 336.74 345.589 327.837 349.538 322.141L345.86 319.59ZM296.256 353.83V349.353H274.168V353.83V358.306H296.256V353.83ZM274.168 353.83L277.997 356.148L475.438 30.0838L471.609 27.7652L467.78 25.4466L270.339 351.511L274.168 353.83Z" fill="#BE3F3E" mask="url(#path-1-inside-1_4_13)"/>
<mask id="path-3-inside-2_4_13" fill="white">
<path d="M133.4 203.704C156.358 201.617 191.833 202.804 207.15 203.68L148.312 300.849L41.4658 476.539C38.7842 480.949 32.0003 479.048 32 473.887V334.601C32 333.683 32.2477 332.782 32.7168 331.993L88.626 237.944C93.8935 227.409 110.223 205.812 133.4 203.704Z"/>
</mask>
<path d="M133.4 203.704C156.358 201.617 191.833 202.804 207.15 203.68L148.312 300.849L41.4658 476.539C38.7842 480.949 32.0003 479.048 32 473.887V334.601C32 333.683 32.2477 332.782 32.7168 331.993L88.626 237.944C93.8935 227.409 110.223 205.812 133.4 203.704Z" fill="url(#paint1_linear_4_13)"/>
<path d="M133.4 203.704L132.995 199.247L132.995 199.247L133.4 203.704ZM207.15 203.68L210.979 205.999L214.832 199.636L207.406 199.211L207.15 203.68ZM148.312 300.849L152.137 303.175L152.142 303.168L148.312 300.849ZM41.4658 476.539L45.2903 478.865L45.2904 478.865L41.4658 476.539ZM32 473.887L27.5237 473.887L27.5237 473.887L32 473.887ZM32 334.601L27.5237 334.601V334.601H32ZM32.7168 331.993L36.5646 334.28L36.5646 334.28L32.7168 331.993ZM88.626 237.944L92.4737 240.231L92.5569 240.091L92.6297 239.946L88.626 237.944ZM133.4 203.704L133.806 208.162C156.41 206.107 191.604 207.275 206.895 208.149L207.15 203.68L207.406 199.211C192.062 198.334 156.305 197.127 132.995 199.247L133.4 203.704ZM207.15 203.68L203.321 201.361L144.483 298.53L148.312 300.849L152.142 303.168L210.979 205.999L207.15 203.68ZM148.312 300.849L144.488 298.523L37.6412 474.213L41.4658 476.539L45.2904 478.865L152.137 303.175L148.312 300.849ZM41.4658 476.539L37.6413 474.213C37.5054 474.437 37.3987 474.478 37.3523 474.494C37.2676 474.525 37.1184 474.543 36.9352 474.492C36.752 474.44 36.634 474.347 36.5773 474.277C36.5462 474.239 36.4763 474.148 36.4763 473.887L32 473.887L27.5237 473.887C27.5242 483.573 40.2567 487.142 45.2903 478.865L41.4658 476.539ZM32 473.887H36.4763V334.601H32H27.5237V473.887H32ZM32 334.601L36.4763 334.601C36.4763 334.488 36.5069 334.377 36.5646 334.28L32.7168 331.993L28.869 329.705C27.9885 331.186 27.5237 332.878 27.5237 334.601L32 334.601ZM32.7168 331.993L36.5646 334.28L92.4737 240.231L88.626 237.944L84.7782 235.656L28.869 329.705L32.7168 331.993ZM88.626 237.944L92.6297 239.946C95.0382 235.129 100.116 227.548 107.317 220.968C114.516 214.39 123.514 209.098 133.806 208.162L133.4 203.704L132.995 199.247C120.11 200.418 109.355 206.978 101.277 214.359C93.2024 221.738 87.4813 230.224 84.6222 235.942L88.626 237.944Z" fill="#BE3F3E" mask="url(#path-3-inside-2_4_13)"/>
<mask id="path-5-inside-3_4_13" fill="white">
<path d="M466.59 27.5759C468.387 26.6478 470.366 26.9007 471.832 27.9109L274.48 353.83H243.581C221.247 353.83 200.531 347.357 167.065 285.093C165.178 281.583 160.155 281.38 158.084 284.785L128.997 332.611L128.982 332.601L207.049 203.675C207.231 203.685 207.41 203.695 207.586 203.705C237.919 205.472 261.223 250.546 270.958 268.384C272.683 271.544 276.76 271.48 278.619 268.398L351.47 147.651C352.962 145.178 352.108 141.961 349.585 140.555L308.952 117.908C305.397 115.926 305.479 110.782 309.096 108.914L466.59 27.5759Z"/>
</mask>
<path d="M466.59 27.5759C468.387 26.6478 470.366 26.9007 471.832 27.9109L274.48 353.83H243.581C221.247 353.83 200.531 347.357 167.065 285.093C165.178 281.583 160.155 281.38 158.084 284.785L128.997 332.611L128.982 332.601L207.049 203.675C207.231 203.685 207.41 203.695 207.586 203.705C237.919 205.472 261.223 250.546 270.958 268.384C272.683 271.544 276.76 271.48 278.619 268.398L351.47 147.651C352.962 145.178 352.108 141.961 349.585 140.555L308.952 117.908C305.397 115.926 305.479 110.782 309.096 108.914L466.59 27.5759Z" fill="url(#paint2_radial_4_13)"/>
<path d="M466.59 27.5759L464.023 22.6043L464.023 22.6044L466.59 27.5759ZM471.832 27.9109L476.619 30.8091L479.351 26.2964L475.007 23.3032L471.832 27.9109ZM274.48 353.83V359.425H277.633L279.266 356.728L274.48 353.83ZM167.065 285.093L171.993 282.444L171.993 282.444L167.065 285.093ZM158.084 284.785L162.865 287.692L162.865 287.692L158.084 284.785ZM128.997 332.611L126.032 337.356L130.835 340.358L133.778 335.519L128.997 332.611ZM128.982 332.601L124.195 329.703L121.338 334.422L126.016 337.346L128.982 332.601ZM207.049 203.675L207.367 198.088L204.006 197.897L202.263 200.776L207.049 203.675ZM207.586 203.705L207.912 198.119L207.912 198.119L207.586 203.705ZM270.958 268.384L275.87 265.704L275.87 265.704L270.958 268.384ZM278.619 268.398L273.828 265.508L273.828 265.508L278.619 268.398ZM351.47 147.651L356.261 150.542L356.261 150.542L351.47 147.651ZM349.585 140.555L352.309 135.668L352.309 135.668L349.585 140.555ZM308.952 117.908L306.228 122.795L306.228 122.795L308.952 117.908ZM309.096 108.914L306.528 103.942L306.528 103.942L309.096 108.914ZM466.59 27.5759L469.158 32.5474C469.14 32.5567 469.101 32.5731 469.045 32.5841C468.99 32.5949 468.934 32.5978 468.881 32.5935C468.78 32.5853 468.708 32.5532 468.658 32.5185L471.832 27.9109L475.007 23.3032C471.971 21.2115 467.791 20.6582 464.023 22.6043L466.59 27.5759ZM471.832 27.9109L467.046 25.0126L269.693 350.932L274.48 353.83L279.266 356.728L476.619 30.8091L471.832 27.9109ZM274.48 353.83V348.234H243.581V353.83V359.425H274.48V353.83ZM243.581 353.83V348.234C233.19 348.234 223.782 346.786 212.921 338.385C201.703 329.707 188.606 313.353 171.993 282.444L167.065 285.093L162.136 287.743C178.989 319.097 192.984 337.111 206.074 347.236C219.521 357.638 231.639 359.425 243.581 359.425V353.83ZM167.065 285.093L171.993 282.444C168.129 275.256 157.7 274.648 153.304 281.877L158.084 284.785L162.865 287.692C162.834 287.743 162.756 287.827 162.644 287.884C162.549 287.933 162.477 287.939 162.439 287.938C162.401 287.936 162.349 287.926 162.285 287.888C162.208 287.842 162.155 287.777 162.136 287.743L167.065 285.093ZM158.084 284.785L153.304 281.877L124.217 329.704L128.997 332.611L133.778 335.519L162.865 287.692L158.084 284.785ZM128.997 332.611L131.963 327.866L131.947 327.856L128.982 332.601L126.016 337.346L126.032 337.356L128.997 332.611ZM128.982 332.601L133.768 335.499L211.835 206.573L207.049 203.675L202.263 200.776L124.195 329.703L128.982 332.601ZM207.049 203.675L206.731 209.261C206.943 209.273 207.082 209.28 207.261 209.291L207.586 203.705L207.912 198.119C207.739 198.109 207.519 198.097 207.367 198.088L207.049 203.675ZM207.586 203.705L207.261 209.291C219.85 210.024 231.919 219.955 242.605 233.486C253.087 246.759 261.116 262.03 266.047 271.065L270.958 268.384L275.87 265.704C271.065 256.901 262.574 240.716 251.387 226.55C240.404 212.643 225.655 199.153 207.912 198.119L207.586 203.705ZM270.958 268.384L266.047 271.065C267.875 274.414 271.2 276.342 274.762 276.327C278.271 276.312 281.52 274.423 283.41 271.289L278.619 268.398L273.828 265.508C273.828 265.508 273.845 265.481 273.886 265.44C273.927 265.399 273.987 265.35 274.068 265.303C274.23 265.209 274.452 265.138 274.714 265.136C274.98 265.135 275.252 265.207 275.489 265.348C275.733 265.494 275.844 265.656 275.87 265.704L270.958 268.384ZM278.619 268.398L283.41 271.289L356.261 150.542L351.47 147.651L346.679 144.761L273.828 265.508L278.619 268.398ZM351.47 147.651L356.261 150.542C359.387 145.36 357.598 138.616 352.309 135.668L349.585 140.555L346.861 145.443C346.617 145.307 346.536 144.997 346.679 144.761L351.47 147.651ZM349.585 140.555L352.309 135.668L311.677 113.02L308.952 117.908L306.228 122.795L346.861 145.443L349.585 140.555ZM308.952 117.908L311.677 113.021C311.719 113.044 311.804 113.115 311.866 113.227C311.918 113.321 311.93 113.401 311.929 113.457C311.928 113.513 311.913 113.593 311.858 113.686C311.793 113.795 311.706 113.863 311.664 113.885L309.096 108.914L306.528 103.942C298.947 107.858 298.773 118.64 306.228 122.795L308.952 117.908ZM309.096 108.914L311.663 113.885L469.158 32.5474L466.59 27.5759L464.023 22.6044L306.528 103.942L309.096 108.914Z" fill="#792322" mask="url(#path-5-inside-3_4_13)"/>
<defs>
<linearGradient id="paint0_linear_4_13" x1="373.991" y1="179.412" x2="404.106" y2="197.787" gradientUnits="userSpaceOnUse">
<stop stop-color="#872322"/>
<stop offset="1" stop-color="#B23130"/>
</linearGradient>
<linearGradient id="paint1_linear_4_13" x1="108.054" y1="251.894" x2="8.00871" y2="404.002" gradientUnits="userSpaceOnUse">
<stop stop-color="#992827"/>
<stop offset="1" stop-color="#621110"/>
</linearGradient>
<radialGradient id="paint2_radial_4_13" cx="0" cy="0" r="1" gradientTransform="matrix(-93.4095 -63.2937 397.554 -586.712 222.392 298.853)" gradientUnits="userSpaceOnUse">
<stop offset="0.206731" stop-color="#992827"/>
<stop offset="1" stop-color="#330D0D"/>
</radialGradient>
</defs>
</svg>
